<svg xmlns="http://www.w3.org/2000/svg" xmlns:xlink="http://www.w3.org/1999/xlink" version="1.1" style="enable-background:new 0 0 512.014 512.014;" xml:space="preserve" width="512.014" height="512.014"><rect id="backgroundrect" width="100%" height="100%" x="0" y="0" fill="none" stroke="none"/>
















<g class="currentLayer" style=""><title>Layer 1</title><g id="svg_1" class="selected" fill="#010606" fill-opacity="1">
	<g id="svg_2" fill="#010606" fill-opacity="1">
		<g id="svg_3" fill="#010606" fill-opacity="1">
			<path d="M233.99372789764405,340.66072789764405 v-192 c0,-11.776 -9.536,-21.333 -21.333,-21.333 h-192 c-11.797,0 -21.333,9.557 -21.333,21.333 v192 c0,11.776 9.536,21.333 21.333,21.333 h192 C224.45772789764405,361.993727897644 233.99372789764405,352.43672789764406 233.99372789764405,340.66072789764405 zM127.32672789764405,297.993727897644 H84.65972789764405 c-11.797,0 -21.333,-9.557 -21.333,-21.333 s9.536,-21.333 21.333,-21.333 h42.667 c11.797,0 21.333,9.557 21.333,21.333 S139.12372789764405,297.993727897644 127.32672789764405,297.993727897644 zM148.65972789764405,233.99372789764405 h-64 c-11.797,0 -21.333,-9.557 -21.333,-21.333 s9.536,-21.333 21.333,-21.333 h64 c11.797,0 21.333,9.557 21.333,21.333 S160.45772789764405,233.99372789764405 148.65972789764405,233.99372789764405 z" id="svg_4" fill="#010606" fill-opacity="1"/>
			<path d="M142.15972789764405,99.99472789764404 c40.981,-39.659 133.376,-46.848 192.597,-21.632 l-6.507,2.176 c-11.179,3.733 -17.216,15.808 -13.483,26.987 c2.965,8.939 11.285,14.592 20.224,14.592 c2.24,0 4.501,-0.36300000000000016 6.741,-1.109 l48.341,-16.107 c0.23500000000000001,-0.08500000000000005 0.405,-0.277 0.6400000000000003,-0.36300000000000016 c1.259,-0.46900000000000014 2.325,-1.3010000000000002 3.499,-2.027 c1.3010000000000002,-0.789 2.645,-1.472 3.712,-2.496 c0.1920000000000001,-0.171 0.42700000000000016,-0.23500000000000001 0.6190000000000003,-0.405 c0.7250000000000003,-0.7470000000000003 1.024,-1.685 1.621,-2.517 c0.917,-1.237 1.856,-2.3890000000000002 2.496,-3.797 c0.5760000000000003,-1.28 0.789,-2.624 1.088,-3.968 c0.29900000000000015,-1.323 0.6830000000000006,-2.56 0.7250000000000003,-3.904 c0.06400000000000004,-1.5790000000000002 -0.277,-3.072 -0.555,-4.6290000000000004 c-0.1920000000000001,-0.9600000000000003 -0.04300000000000003,-1.92 -0.36300000000000016,-2.88 l-21.333,-64 c-3.733,-11.179 -15.68,-17.237 -26.987,-13.483 c-11.157,3.712 -17.195,15.808 -13.483,26.987 l3.051,9.088 C269.96772789764407,7.5367278976440435 165.19972789764404,18.330727897644042 112.48472789764405,69.33872789764405 c-8.448,8.171 -8.683,21.696 -0.49100000000000016,30.165 C120.20772789764405,107.95272789764404 133.69072789764405,108.20872789764404 142.15972789764405,99.99472789764404 z" id="svg_5" fill="#010606" fill-opacity="1"/>
			<path d="M368.493727897644,410.661727897644 c-40.981,39.659 -133.376,46.848 -192.597,21.632 l22.187,-7.4030000000000005 c11.157,-3.712 17.195,-15.808 13.483,-26.987 c-3.733,-11.157 -15.723,-17.237 -26.987,-13.483 l-64,21.333 c-0.256,0.08500000000000005 -0.405,0.277 -0.6400000000000003,0.36300000000000016 c-1.344,0.49100000000000016 -2.475,1.365 -3.712,2.133 c-1.216,0.7680000000000003 -2.475,1.408 -3.499,2.3890000000000002 c-0.1920000000000001,0.171 -0.42700000000000016,0.21300000000000008 -0.6190000000000003,0.405 c-0.7250000000000003,0.7470000000000003 -1.024,1.685 -1.621,2.517 c-0.917,1.237 -1.856,2.3890000000000002 -2.496,3.797 c-0.5760000000000003,1.28 -0.789,2.624 -1.088,3.968 c-0.29900000000000015,1.3010000000000002 -0.6830000000000006,2.539 -0.7250000000000003,3.904 c-0.06400000000000004,1.5790000000000002 0.277,3.072 0.555,4.6290000000000004 c0.1920000000000001,0.9600000000000003 0.04300000000000003,1.92 0.36300000000000016,2.88 l21.333,64 c2.987,8.939 11.285,14.592 20.224,14.592 c2.24,0 4.501,-0.3410000000000003 6.763,-1.109 c11.157,-3.712 17.195,-15.808 13.483,-26.987 l-3.051,-9.088 c27.136,10.496 58.069,15.936 89.173,15.936 c54.699,0 109.525,-16.256 143.147,-48.768 c8.448,-8.171 8.683,-21.696 0.49100000000000016,-30.165 C390.46672789764403,402.70472789764403 376.98472789764406,402.469727897644 368.493727897644,410.661727897644 z" id="svg_6" fill="#010606" fill-opacity="1"/>
			<path d="M489.993727897644,127.32772789764405 h-192 c-11.797,0 -21.333,9.557 -21.333,21.333 v192 c0,11.776 9.536,21.333 21.333,21.333 h192 c11.797,0 21.333,-9.557 21.333,-21.333 v-192 C511.326727897644,136.88472789764404 501.79072789764405,127.32772789764405 489.993727897644,127.32772789764405 zM404.659727897644,297.993727897644 h-42.667 c-11.797,0 -21.333,-9.557 -21.333,-21.333 s9.536,-21.333 21.333,-21.333 h42.667 c11.797,0 21.333,9.557 21.333,21.333 S416.457727897644,297.993727897644 404.659727897644,297.993727897644 zM425.993727897644,233.99372789764405 h-64 c-11.797,0 -21.333,-9.557 -21.333,-21.333 s9.536,-21.333 21.333,-21.333 h64 c11.797,0 21.333,9.557 21.333,21.333 S437.79072789764405,233.99372789764405 425.993727897644,233.99372789764405 z" id="svg_7" fill="#010606" fill-opacity="1"/>
		</g>
	</g>
</g><g id="svg_8">
</g><g id="svg_9">
</g><g id="svg_10">
</g><g id="svg_11">
</g><g id="svg_12">
</g><g id="svg_13">
</g><g id="svg_14">
</g><g id="svg_15">
</g><g id="svg_16">
</g><g id="svg_17">
</g><g id="svg_18">
</g><g id="svg_19">
</g><g id="svg_20">
</g><g id="svg_21">
</g><g id="svg_22">
</g></g></svg>