<svg xmlns="http://www.w3.org/2000/svg" xmlns:xlink="http://www.w3.org/1999/xlink" version="1.1" style="enable-background:new 0 0 512.014 512.014;" xml:space="preserve" width="512.014" height="512.014"><rect id="backgroundrect" width="100%" height="100%" x="0" y="0" fill="none" stroke="none"/>
















<g class="currentLayer" style=""><title>Layer 1</title><g id="svg_1" class="selected" fill="#77f16d" fill-opacity="1">
	<g id="svg_2" fill="#77f16d" fill-opacity="1">
		<g id="svg_3" fill="#77f16d" fill-opacity="1">
			<path d="M233.99372789764405,341.341 v-192 c0,-11.776 -9.536,-21.333 -21.333,-21.333 h-192 c-11.797,0 -21.333,9.557 -21.333,21.333 v192 c0,11.776 9.536,21.333 21.333,21.333 h192 C224.45772789764405,362.674 233.99372789764405,353.117 233.99372789764405,341.341 zM127.32672789764405,298.674 H84.65972789764405 c-11.797,0 -21.333,-9.557 -21.333,-21.333 s9.536,-21.333 21.333,-21.333 h42.667 c11.797,0 21.333,9.557 21.333,21.333 S139.12372789764405,298.674 127.32672789764405,298.674 zM148.65972789764405,234.674 h-64 c-11.797,0 -21.333,-9.557 -21.333,-21.333 s9.536,-21.333 21.333,-21.333 h64 c11.797,0 21.333,9.557 21.333,21.333 S160.45772789764405,234.674 148.65972789764405,234.674 z" id="svg_4" fill="#77f16d" fill-opacity="1"/>
			<path d="M142.15972789764405,100.675 c40.981,-39.659 133.376,-46.848 192.597,-21.632 l-6.507,2.176 c-11.179,3.733 -17.216,15.808 -13.483,26.987 c2.965,8.939 11.285,14.592 20.224,14.592 c2.24,0 4.501,-0.3630000000000001 6.741,-1.109 l48.341,-16.107 c0.23500000000000001,-0.08500000000000003 0.405,-0.277 0.6400000000000002,-0.3630000000000001 c1.259,-0.4690000000000001 2.325,-1.3010000000000002 3.499,-2.027 c1.3010000000000002,-0.789 2.645,-1.472 3.712,-2.496 c0.19200000000000006,-0.171 0.4270000000000001,-0.23500000000000001 0.6190000000000002,-0.405 c0.7250000000000002,-0.7470000000000002 1.024,-1.685 1.621,-2.517 c0.917,-1.237 1.856,-2.3890000000000002 2.496,-3.797 c0.5760000000000002,-1.28 0.789,-2.624 1.088,-3.968 c0.2990000000000001,-1.323 0.6830000000000004,-2.56 0.7250000000000002,-3.904 c0.06400000000000003,-1.5790000000000002 -0.277,-3.072 -0.555,-4.6290000000000004 c-0.19200000000000006,-0.9600000000000002 -0.04300000000000002,-1.92 -0.3630000000000001,-2.88 l-21.333,-64 c-3.733,-11.179 -15.68,-17.237 -26.987,-13.483 c-11.157,3.712 -17.195,15.808 -13.483,26.987 l3.051,9.088 C269.96772789764407,8.217 165.19972789764404,19.011 112.48472789764405,70.019 c-8.448,8.171 -8.683,21.696 -0.4910000000000001,30.165 C120.20772789764405,108.633 133.69072789764405,108.889 142.15972789764405,100.675 z" id="svg_5" fill="#77f16d" fill-opacity="1"/>
			<path d="M368.493727897644,411.342 c-40.981,39.659 -133.376,46.848 -192.597,21.632 l22.187,-7.4030000000000005 c11.157,-3.712 17.195,-15.808 13.483,-26.987 c-3.733,-11.157 -15.723,-17.237 -26.987,-13.483 l-64,21.333 c-0.256,0.08500000000000003 -0.405,0.277 -0.6400000000000002,0.3630000000000001 c-1.344,0.4910000000000001 -2.475,1.365 -3.712,2.133 c-1.216,0.7680000000000002 -2.475,1.408 -3.499,2.3890000000000002 c-0.19200000000000006,0.171 -0.4270000000000001,0.21300000000000005 -0.6190000000000002,0.405 c-0.7250000000000002,0.7470000000000002 -1.024,1.685 -1.621,2.517 c-0.917,1.237 -1.856,2.3890000000000002 -2.496,3.797 c-0.5760000000000002,1.28 -0.789,2.624 -1.088,3.968 c-0.2990000000000001,1.3010000000000002 -0.6830000000000004,2.539 -0.7250000000000002,3.904 c-0.06400000000000003,1.5790000000000002 0.277,3.072 0.555,4.6290000000000004 c0.19200000000000006,0.9600000000000002 0.04300000000000002,1.92 0.3630000000000001,2.88 l21.333,64 c2.987,8.939 11.285,14.592 20.224,14.592 c2.24,0 4.501,-0.3410000000000002 6.763,-1.109 c11.157,-3.712 17.195,-15.808 13.483,-26.987 l-3.051,-9.088 c27.136,10.496 58.069,15.936 89.173,15.936 c54.699,0 109.525,-16.256 143.147,-48.768 c8.448,-8.171 8.683,-21.696 0.4910000000000001,-30.165 C390.46672789764403,403.385 376.98472789764406,403.15 368.493727897644,411.342 z" id="svg_6" fill="#77f16d" fill-opacity="1"/>
			<path d="M489.993727897644,128.008 h-192 c-11.797,0 -21.333,9.557 -21.333,21.333 v192 c0,11.776 9.536,21.333 21.333,21.333 h192 c11.797,0 21.333,-9.557 21.333,-21.333 v-192 C511.326727897644,137.565 501.79072789764405,128.008 489.993727897644,128.008 zM404.659727897644,298.674 h-42.667 c-11.797,0 -21.333,-9.557 -21.333,-21.333 s9.536,-21.333 21.333,-21.333 h42.667 c11.797,0 21.333,9.557 21.333,21.333 S416.457727897644,298.674 404.659727897644,298.674 zM425.993727897644,234.674 h-64 c-11.797,0 -21.333,-9.557 -21.333,-21.333 s9.536,-21.333 21.333,-21.333 h64 c11.797,0 21.333,9.557 21.333,21.333 S437.79072789764405,234.674 425.993727897644,234.674 z" id="svg_7" fill="#77f16d" fill-opacity="1"/>
		</g>
	</g>
</g><g id="svg_8">
</g><g id="svg_9">
</g><g id="svg_10">
</g><g id="svg_11">
</g><g id="svg_12">
</g><g id="svg_13">
</g><g id="svg_14">
</g><g id="svg_15">
</g><g id="svg_16">
</g><g id="svg_17">
</g><g id="svg_18">
</g><g id="svg_19">
</g><g id="svg_20">
</g><g id="svg_21">
</g><g id="svg_22">
</g></g></svg>