<?xml version='1.0' encoding='iso-8859-1'?>
<svg version="1.1" xmlns="http://www.w3.org/2000/svg" viewBox="0 0 462.998 462.998" xmlns:xlink="http://www.w3.org/1999/xlink" enable-background="new 0 0 462.998 462.998">
  <g>
    <g>
      <path d="m455.166,212.558l-68.304-68.304c-10.482-10.482-24.419-16.255-39.245-16.255h-324.117c-12.958,0-23.5,10.542-23.5,23.5v160c0,12.958 10.542,23.5 23.5,23.5h324.118c14.825,0 28.762-5.772 39.245-16.255l68.304-68.305c10.442-10.443 10.442-27.437-0.001-37.881zm-10.606,27.275l-68.304,68.304c-7.649,7.649-17.82,11.862-28.638,11.862h-324.118c-4.687,0-8.5-3.813-8.5-8.5v-160c0-4.687 3.813-8.5 8.5-8.5h324.118c10.818,0 20.989,4.213 28.638,11.862l68.304,68.303c4.595,4.596 4.595,12.075 5.68434e-14,16.669z"/>
      <path d="m75.5,198.999h20c4.142,0 7.5-3.357 7.5-7.5s-3.358-7.5-7.5-7.5h-20c-15.164,0-27.5,12.337-27.5,27.5s12.336,27.5 27.5,27.5c6.893,0 12.5,5.607 12.5,12.5 0,6.893-5.607,12.5-12.5,12.5h-20c-4.142,0-7.5,3.357-7.5,7.5s3.358,7.5 7.5,7.5h20c15.164,0 27.5-12.337 27.5-27.5 0-15.163-12.336-27.5-27.5-27.5-6.893,0-12.5-5.607-12.5-12.5s5.607-12.5 12.5-12.5z"/>
      <path d="m158.463,188.714c-1.139-2.848-3.896-4.715-6.963-4.715s-5.825,1.867-6.963,4.715l-32,80c-1.539,3.846 0.332,8.21 4.178,9.749 3.846,1.536 8.21-0.333 9.749-4.179l7.714-19.285h34.645l7.714,19.285c1.173,2.933 3.989,4.717 6.966,4.717 0.927,0 1.87-0.173 2.783-0.538 3.846-1.539 5.716-5.903 4.178-9.749l-32.001-80zm-18.285,51.285l11.322-28.306 11.322,28.306h-22.644z"/>
      <path d="m255.5,263.999h-40.5v-72.5c0-4.143-3.358-7.5-7.5-7.5s-7.5,3.357-7.5,7.5v80c0,4.143 3.358,7.5 7.5,7.5h48c4.142,0 7.5-3.357 7.5-7.5s-3.358-7.5-7.5-7.5z"/>
      <path d="m327.5,198.999c4.142,0 7.5-3.357 7.5-7.5s-3.358-7.5-7.5-7.5h-48c-4.142,0-7.5,3.357-7.5,7.5v80c0,4.143 3.358,7.5 7.5,7.5h48c4.142,0 7.5-3.357 7.5-7.5s-3.358-7.5-7.5-7.5h-40.5v-25h24.5c4.142,0 7.5-3.357 7.5-7.5s-3.358-7.5-7.5-7.5h-24.5v-25h40.5z"/>
      <path d="m391.5,207.999c-12.958,0-23.5,10.542-23.5,23.5s10.542,23.5 23.5,23.5 23.5-10.542 23.5-23.5-10.542-23.5-23.5-23.5zm0,32c-4.687,0-8.5-3.813-8.5-8.5s3.813-8.5 8.5-8.5 8.5,3.813 8.5,8.5-3.813,8.5-8.5,8.5z"/>
    </g>
  </g>
</svg>
